//// ------------------------------------------------------
//// THIS FILE WAS AUTOMATICALLY GENERATED (DO NOT MODIFY)
//// ------------------------------------------------------

Table Roles {
  id String [pk]
  name String [not null]
  code String [not null]
  user User [not null]
  permissions Permissions [not null]
  updatedAt DateTime [not null]
  createdAt DateTime [default: `now()`, not null]
}

Table Permissions {
  id String [pk]
  role Roles [not null]
  user User [not null]
  name String [not null]
  code String [not null]
  updatedAt DateTime [not null]
  createdAt DateTime [default: `now()`, not null]
}

Table Categorias {
  id String [pk]
  titulo String [unique, not null]
  noticias Noticia [not null]
  updatedAt DateTime [not null]
  createdAt DateTime [default: `now()`, not null]
}

Table Tags {
  id String [pk]
  titulo String [unique, not null]
  noticias Noticia [not null]
  updatedAt DateTime [not null]
  createdAt DateTime [default: `now()`, not null]
}

Table Noticia {
  id String [pk]
  categorias Categorias [not null]
  tags Tags [not null]
  slug String [unique, not null]
  titulo String [unique, not null]
  capa String [not null]
  resumo String [not null]
  publico Boolean [not null, default: false]
  permitirComentario Boolean [not null, default: false]
  conteudo Json [not null]
  updatedAt DateTime [not null]
  createdAt DateTime [default: `now()`, not null]
  categoriasId String [not null]
  comentario comentario [not null]
}

Table comentario {
  id String [pk]
  commentId String
  comentario comentario
  comentarios comentario [not null]
  updatedAt DateTime [not null]
  usuario User [not null]
  createdAt DateTime [default: `now()`, not null]
  Noticia Noticia [not null]
  noticiaId String [not null]
  userId String [not null]
}

Table imagens {
  id String [pk]
  imageUrl String [not null]
  key String [not null]
  idOrigem String [not null]
  updatedAt DateTime [not null]
  createdAt DateTime [default: `now()`, not null]
}

Table User {
  id String [pk]
  name String
  email String [unique]
  newsLetter Boolean [not null, default: false]
  emailVerified DateTime
  password_hash String [not null, default: '']
  image String
  comentario comentario [not null]
  Roles Roles [not null]
  Permissions Permissions [not null]
}

Ref: Noticia.categoriasId > Categorias.id [delete: Cascade]

Ref: comentario.commentId - comentario.id [delete: Cascade]

Ref: comentario.userId > User.id [delete: Cascade]

Ref: comentario.noticiaId > Noticia.id